PathFileType	4	(X/Y/Z)	C:\Users\Basilio\Documents\Thesis Gigler\squatting_fais\c3dfiles\040\SLS_pre_back2\markers_experimental.trc
DataRate	CameraRate	NumFrames	NumMarkers	Units	OrigDataRate	OrigDataStartFrame	OrigNumFrames
200.000000	200.000000	4	63	mm	200.000000	182	1459
Frame#	Time	FHD			LBHD			RBHD			C7			T10			CLAV			LSHO			LUUPA			LMUPA			LDUPA			LLEP			LMEP			LRAD			LUL			LRFIN			RSHO			RUPA1			RMUPA			RDUPA			RLEP			RMEP			RRAD			RUL			RUFIN			LASI			RASI			USACR			LSACR			RSACR			LTHI1			LTHI2			LTHI3			LTHI4			LLFC			LMFC			LTIB1			LTIB2			LTIB3			LTIB4			LLMAL			LMMAL			LHEE			LMT1			LMT2			LMT5			RTHI			RTHI2			RTHI3			RTHI4			RLFC			RMFC			RTIB1			RTIB2			RTIB3			RTIB4			RLMAL			RMMAL			RHEE			RMT1			RMT2			RMT5			*61			*62			
		X1	Y1	Z1	X2	Y2	Z2	X3	Y3	Z3	X4	Y4	Z4	X5	Y5	Z5	X6	Y6	Z6	X7	Y7	Z7	X8	Y8	Z8	X9	Y9	Z9	X10	Y10	Z10	X11	Y11	Z11	X12	Y12	Z12	X13	Y13	Z13	X14	Y14	Z14	X15	Y15	Z15	X16	Y16	Z16	X17	Y17	Z17	X18	Y18	Z18	X19	Y19	Z19	X20	Y20	Z20	X21	Y21	Z21	X22	Y22	Z22	X23	Y23	Z23	X24	Y24	Z24	X25	Y25	Z25	X26	Y26	Z26	X27	Y27	Z27	X28	Y28	Z28	X29	Y29	Z29	X30	Y30	Z30	X31	Y31	Z31	X32	Y32	Z32	X33	Y33	Z33	X34	Y34	Z34	X35	Y35	Z35	X36	Y36	Z36	X37	Y37	Z37	X38	Y38	Z38	X39	Y39	Z39	X40	Y40	Z40	X41	Y41	Z41	X42	Y42	Z42	X43	Y43	Z43	X44	Y44	Z44	X45	Y45	Z45	X46	Y46	Z46	X47	Y47	Z47	X48	Y48	Z48	X49	Y49	Z49	X50	Y50	Z50	X51	Y51	Z51	X52	Y52	Z52	X53	Y53	Z53	X54	Y54	Z54	X55	Y55	Z55	X56	Y56	Z56	X57	Y57	Z57	X58	Y58	Z58	X59	Y59	Z59	X60	Y60	Z60	X61	Y61	Z61	X62	Y62	Z62	X63	Y63	Z63	

183	0.91	-159.11669921875	1788.032958984375	-1180.570678710938	-281.5192565917969	1732.832763671875	-1221.91943359375	-333.5816955566407	1693.0908203125	-1090.092041015625	-347.0372009277344	1572.860595703125	-1142.213989257813	-384.9679260253907	1256.7802734375	-1131.669799804688	-222.0827789306641	1497.42919921875	-1139.116455078125	-266.8620910644532	1526.858642578125	-1314.807006835938	-256.4392700195313	1316.542602539063	-1389.438720703125	-214.1858825683594	1299.518798828125	-1370.191040039063	-243.3786010742188	1249.491333007813	-1393.595947265625	-243.7811737060547	1187.156982421875	-1388.951049804688	-274.1540222167969	1175.061279296875	-1329.34912109375	-73.89922332763673	963.329040527344	-1333.878051757813	-107.3044128417969	952.6245727539065	-1402.568969726563	-30.05340957641602	882.0037841796877	-1349.026245117188	-267.7052612304688	1512.9140625	-972.1651611328127	-271.4763488769532	1305.154174804688	-889.9068603515627	-230.5171356201172	1287.934814453125	-908.701354980469	-256.4565429687501	1236.950927734375	-889.5734863281252	-238.8276062011719	1178.254150390625	-890.6976318359377	-274.8907775878907	1161.742553710938	-958.0313110351565	-56.5155715942383	963.2773437500002	-959.340026855469	-96.40833282470706	940.6627197265627	-897.9072875976565	-2.651729106903077	888.8435058593752	-940.1174926757815	-214.908920288086	1075.81787109375	-1245.0947265625	-204.1199188232422	1081.78515625	-1015.739501953125	-394.9363708496095	1121.090576171875	-1121.353271484375	-403.5342407226564	1090.922729492188	-1148.4267578125	-401.312225341797	1091.677856445313	-1091.784912109375	-322.7518920898438	813.996276855469	-1290.841186523438	-278.9163818359376	741.0592651367189	-1291.770263671875	-233.3108673095704	748.0811767578126	-1296.609375	-296.8363342285157	686.9831542968751	-1276.31640625	-268.4344482421876	555.7863159179689	-1262.504516601563	-271.7098693847657	542.7406005859376	-1130.209838867188	-250.8774871826172	330.8074645996094	-1209.179809570313	-323.7668151855469	297.4609985351563	-1248.107543945313	-282.2698364257813	286.6451721191407	-1233.282836914063	-282.3850402832032	210.4417572021485	-1194.246948242188	-355.3931274414063	128.9498291015625	-1203.474975585938	-324.7418212890626	143.9140625	-1121.979736328125	-418.7180480957032	98.28338623046878	-1157.864501953125	-205.323959350586	57.641902923584	-1134.378051757813	-204.5460052490235	51.8336639404297	-1180.923828125	-256.5774230957032	38.43981170654298	-1229.990234375	-248.5194396972657	810.2993164062502	-943.4221191406252	-212.6210327148438	754.5608520507814	-949.3879394531252	-180.4700775146485	757.9669189453126	-957.170837402344	-240.9821014404297	676.7182006835939	-961.5662841796877	-239.3849792480469	545.2741699218751	-974.7165527343752	-237.1387786865235	538.4547119140626	-1106.998046875	-220.0059051513672	353.8653564453126	-998.500671386719	-303.9503479003907	290.9450683593751	-975.932312011719	-260.2452392578126	278.0697326660157	-985.6154785156252	-251.5330352783204	230.6385650634766	-1019.194274902344	-324.2060241699219	127.7268753051758	-1001.050598144531	-300.7463989257813	139.3412475585938	-1085.955078125	-388.5313415527345	91.21699523925783	-1058.638549804688	-171.2662811279297	56.89143371582033	-1065.217163085938	-176.4488220214844	54.51008987426759	-1025.86181640625	-221.1403503417969	35.54417800903321	-974.236755371094	nan	nan	nan	nan	nan	nan	
184	0.915	-158.8601379394532	1787.914794921875	-1181.061767578125	-281.5209045410157	1732.782104492188	-1222.3876953125	-333.4837646484376	1693.108032226563	-1090.6962890625	-346.8935852050782	1572.983154296875	-1142.814086914063	-385.0908813476564	1256.92431640625	-1132.31884765625	-221.8694000244141	1497.18359375	-1139.896606445313	-266.7261962890626	1526.963256835938	-1315.363891601563	-255.6365661621094	1317.17431640625	-1390.008056640625	-213.262435913086	1300.289306640625	-1370.651611328125	-241.7080535888672	1249.98828125	-1394.639770507813	-241.8852233886719	1187.7802734375	-1390.0224609375	-272.1898498535157	1175.3984375	-1330.493041992188	-70.71640014648439	964.5237426757815	-1334.863647460938	-104.0921401977539	954.0859985351565	-1403.654174804688	-27.16022872924805	883.0260009765627	-1349.50390625	-267.4831542968751	1512.926147460938	-972.903747558594	-270.8782958984376	1305.322387695313	-890.455749511719	-229.5969696044922	1288.21044921875	-909.3500976562502	-254.8626861572266	1237.43212890625	-889.6990356445315	-237.1160125732422	1178.61962890625	-891.414733886719	-273.7869567871094	1161.6396484375	-958.574645996094	-54.96785354614259	964.1525878906252	-960.0513916015627	-93.99278259277345	942.0581665039065	-898.0711059570315	-0.5521619319915773	889.828796386719	-940.9696044921877	-215.6987457275391	1075.418090820313	-1245.49560546875	-204.4607543945313	1081.657958984375	-1016.205078125	-395.4695739746095	1121.11181640625	-1121.560913085938	-404.1064453125001	1090.993286132813	-1148.548950195313	-401.8673400878907	1091.790161132813	-1091.87060546875	-322.9296264648438	813.6651611328127	-1291.054321289063	-279.1675415039063	740.9608764648439	-1292.094482421875	-233.5781555175782	748.0250244140626	-1296.75439453125	-296.8605957031251	686.7114868164064	-1276.554077148438	-268.2595520019532	555.6140747070314	-1262.801391601563	-271.0136718750001	542.4526977539064	-1130.633666992188	-250.0288543701172	330.6039428710938	-1209.58984375	-323.5139160156251	297.3635559082032	-1248.28466796875	-282.1132507324219	286.6250915527344	-1233.461547851563	-282.3404235839844	210.3341217041016	-1194.365234375	-355.3684387207032	128.910140991211	-1203.549926757813	-324.4822692871094	143.9660186767578	-1122.224975585938	-418.6644897460939	98.27070617675784	-1157.961791992188	-205.2592773437501	57.55762863159181	-1134.45654296875	-204.6009216308594	51.75001907348634	-1180.958618164063	-256.5948486328126	38.38252258300782	-1230.041137695313	-247.741683959961	810.3284301757815	-943.4187622070315	-211.3838348388672	754.7870483398439	-949.9541015625002	-179.8026275634766	757.8766479492189	-958.8655395507815	-239.6068725585938	676.8084106445314	-961.7671508789065	-237.8344268798829	545.3873901367189	-974.7850341796877	-235.8688201904297	538.6269531250001	-1106.9560546875	-218.9056243896485	354.4691467285157	-998.3713378906252	-303.3455200195313	290.6698303222657	-976.8430786132815	-259.5372009277344	278.5602722167969	-985.2847290039065	-250.7397460937501	230.6961517333985	-1018.890197753906	-323.4759826660157	128.2698059082032	-1000.417785644531	-300.3148803710938	139.7774353027344	-1085.550170898438	-388.4417419433595	91.69554138183595	-1058.294067382813	-171.2062377929688	57.06980514526369	-1065.131591796875	-176.3348693847657	54.50633621215822	-1025.739135742188	-221.2359771728516	35.59100723266602	-974.2238769531252	nan	nan	nan	nan	nan	nan	
185	0.92	-158.7251434326172	1787.842041015625	-1181.78515625	-281.3953247070313	1732.739624023438	-1222.979614257813	-333.3803100585938	1693.0537109375	-1091.27880859375	-346.6430664062501	1572.984497070313	-1143.365356445313	-385.8656005859376	1256.775268554688	-1133.166015625	-222.0072784423829	1497.369018554688	-1140.403442382813	-266.6686706542969	1527.11279296875	-1315.685791015625	-254.3906402587891	1317.85302734375	-1391.000366210938	-211.9184112548829	1300.851928710938	-1371.456176757813	-240.2624206542969	1250.509033203125	-1395.512451171875	-239.9682922363282	1188.4755859375	-1391.252319335938	-270.6244201660157	1175.625	-1331.7978515625	-67.59604644775392	965.7315673828127	-1335.661987304688	-100.8650741577149	955.5294189453127	-1404.751831054688	-23.51336479187012	884.4895629882815	-1350.008911132813	-267.4036560058594	1512.892822265625	-973.8247680664065	-269.9794616699219	1305.375366210938	-891.3132934570315	-228.9001159667969	1288.358032226563	-910.0764160156252	-254.2742614746094	1237.433837890625	-890.4815673828127	-236.4769592285157	1178.776611328125	-891.9107055664065	-272.5831604003907	1161.69287109375	-959.2429199218752	-52.95709228515626	964.4293212890627	-961.0760498046877	-91.97261047363283	942.5129394531252	-898.7827758789065	1.582875967025757	890.8394775390627	-941.8498535156252	-216.3572235107422	1075.109252929688	-1245.781982421875	-204.8536834716797	1081.5283203125	-1016.653198242188	-396.0451965332032	1121.128173828125	-1121.8017578125	-404.6490783691407	1091.075927734375	-1148.687866210938	-402.4335327148439	1091.960571289063	-1092.031616210938	-323.2815246582032	813.329040527344	-1291.233154296875	-279.4510192871094	740.8369140625001	-1292.401977539063	-233.7641754150391	747.9364013671876	-1297.068115234375	-296.9477844238282	686.5276489257814	-1276.853393554688	-268.0166931152344	555.4668579101564	-1263.144165039063	-270.3887023925782	542.0974731445314	-1131.05322265625	-249.8587951660157	331.0158386230469	-1209.755493164063	-323.2169189453126	297.5869750976563	-1248.346313476563	-281.9327697753907	286.5111389160157	-1233.734130859375	-282.3272399902344	209.7845611572266	-1194.390502929688	-355.3713073730469	128.9269256591797	-1203.558715820313	-324.3948059082032	143.9651031494141	-1122.277221679688	-418.6360473632814	98.26823425292972	-1157.952026367188	-205.253158569336	57.51502990722658	-1134.4599609375	-204.6598510742188	51.74451065063478	-1180.94970703125	-256.5885314941407	38.3359718322754	-1230.12255859375	-246.9399414062501	810.5173339843752	-943.5220947265627	-210.5460510253907	754.9982299804689	-949.6374511718752	-178.3876953125	758.3493041992189	-958.7000732421877	-238.6390838623047	676.9752807617189	-961.6669921875002	-236.0089416503907	545.9470825195314	-974.834655761719	-233.5965270996094	538.6513061523439	-1106.910766601563	-217.6516265869141	354.6724548339844	-998.1420898437502	-302.9307250976563	291.5167236328126	-976.7701416015627	-259.5674438476563	278.6900939941407	-985.6334228515627	-250.0372924804688	231.2627563476563	-1018.476623535156	-323.2656250000001	128.5333557128907	-1000.209045410156	-299.8050842285157	140.3131561279297	-1085.170776367188	-388.194061279297	92.14665985107423	-1057.964721679688	-171.2112579345703	57.16094207763673	-1065.056274414063	-176.2587432861328	54.540584564209	-1025.630004882813	-221.1365509033204	35.50337600708009	-974.2242431640627	nan	nan	nan	nan	nan	nan	
186	0.925	-158.7152557373047	1787.789672851563	-1182.538330078125	-281.2432250976563	1732.688598632813	-1223.605590820313	-333.0972595214844	1693.015380859375	-1091.812744140625	-346.4835205078126	1572.95068359375	-1143.870971679688	-386.2184143066407	1256.83349609375	-1133.761840820313	-222.0980224609376	1497.292724609375	-1140.896118164063	-266.5969848632813	1527.298217773438	-1316.145141601563	-253.113265991211	1318.292358398438	-1391.802978515625	-210.492904663086	1301.407348632813	-1372.25830078125	-238.4349365234376	1251.286376953125	-1396.529907226563	-237.9270782470704	1189.025268554688	-1392.385498046875	-268.7571411132813	1175.91650390625	-1333.221435546875	-65.1414260864258	966.9420166015627	-1336.285278320313	-97.16310119628909	956.944030761719	-1405.6865234375	-20.13521003723145	886.0156250000002	-1350.369262695313	-267.6582641601563	1512.568725585938	-974.586120605469	-269.2909545898438	1305.37109375	-891.9648437500002	-228.0125427246094	1288.559204101563	-910.587341308594	-252.9506378173829	1237.70166015625	-891.1905517578127	-234.6180877685547	1178.929931640625	-892.6940917968752	-271.2606201171876	1161.807250976563	-959.8491821289065	-50.9771194458008	965.3655395507815	-961.7822265625002	-90.43487548828126	943.1065673828127	-899.702575683594	3.6834454536438	891.2349853515627	-942.7452392578127	-216.8031158447266	1074.937133789063	-1245.931762695313	-205.4159698486329	1081.3330078125	-1017.064147949219	-396.428680419922	1121.693359375	-1122.05419921875	-405.3395385742189	1091.20263671875	-1148.861083984375	-403.2551269531251	1092.159301757813	-1092.260864257813	-323.6787109375001	813.0712890625002	-1291.52001953125	-279.6846008300782	740.6483154296876	-1292.640014648438	-234.0327453613282	747.8887939453126	-1297.365966796875	-297.0300292968751	686.3330078125001	-1277.097290039063	-267.7251586914063	555.3128662109376	-1263.517578125	-270.0651550292969	541.8594360351564	-1131.301391601563	-249.632064819336	330.1903686523438	-1210.104248046875	-322.8871765136719	297.0757446289063	-1248.60693359375	-281.9902343750001	285.7443237304688	-1233.881469726563	-282.1290893554688	209.8111572265626	-1194.541015625	-355.3409118652344	128.918441772461	-1203.557739257813	-324.3649597167969	143.9849700927735	-1122.342895507813	-418.637420654297	98.32511138916018	-1157.945434570313	-205.2216491699219	57.4677085876465	-1134.454467773438	-205.7567291259766	53.26229858398439	-1181.40771484375	-256.4951171875001	38.2258529663086	-1230.13720703125	-246.0566711425782	810.4337158203127	-943.5837402343752	-209.0351715087891	755.1599731445314	-949.929138183594	-177.716293334961	758.1982421875001	-960.2670898437502	-236.9167175292969	676.9762573242189	-961.6123046875002	-235.1034240722657	546.1192626953126	-974.976745605469	-232.0386810302735	538.9586181640626	-1106.853149414063	-216.9113159179688	354.9472961425782	-997.830505371094	-301.7820434570313	292.9888610839844	-975.5559082031252	-258.3134155273438	279.4920959472657	-984.7059326171877	-249.1832733154297	231.5949096679688	-1018.186584472656	-322.6970825195313	128.7649230957032	-999.7825317382815	-300.5604858398438	141.1050415039063	-1084.362060546875	-388.032440185547	92.62539672851564	-1057.692504882813	-171.482162475586	57.88733291625978	-1065.064453125	-176.1715240478516	54.62740707397462	-1025.50390625	-221.2125549316407	35.61052703857423	-974.1831665039065	nan	nan	nan	nan	nan	nan	
